<svg xmlns="http://www.w3.org/2000/svg" viewBox="0 0 468.11 505.41"><defs><style>.cls-1{fill:#fb0;}.cls-2{fill:#f4d700;}.cls-3{fill:#3f5aff;}.cls-4{fill:#dc6b2c;}.cls-5{fill:#002a3f;}.cls-6{fill:#dc682c;}.cls-7{fill:#94e8ff;}</style></defs><g id="Ebene_2" data-name="Ebene 2"><g id="Ebene_1-2" data-name="Ebene 1"><path class="cls-1" d="M203.1,405.57c7.17-9.31,32.31-41.95,21.07-71.27-2.79-7.3-16.16-19.81-19.61-23.25-4.05-2.71-18.24-12.67-25.95-14-30.94-5.31-58.06,25.7-65.8,34.55C74,376,85,440,87.68,453.86l-.15.18h.18c0,.13.05.26.08.38l.3-.38C102.19,454,167.14,452.27,203.1,405.57Z"/><path class="cls-2" d="M202.71,385.56c5.7-7.4,25.66-33.32,16.74-56.61-2.22-5.8-12.84-15.73-15.58-18.46-3.22-2.16-14.49-10.07-20.61-11.12-24.58-4.22-46.12,20.42-52.27,27.44-30.81,35.25-22.13,86.11-20,97.11l-.12.14h.15q0,.17.06.3l.25-.3C122.55,424,174.14,422.66,202.71,385.56Z"/><rect class="cls-3" x="195.44" y="234.9" width="4.9" height="162.48" transform="translate(-172.02 268.5) rotate(-50.62)"/><path class="cls-4" d="M0,288.93a225.75,225.75,0,0,1,137.16-26.27l30-46.65a185.78,185.78,0,0,0-63,4.55C46.88,234.87,12.66,273.09,0,288.93"/><path class="cls-4" d="M263.25,505.41a227,227,0,0,0,10.34-79.34,225.87,225.87,0,0,0-11.3-60.31l39.91-38.55A185.92,185.92,0,0,1,310,389.92c-2.88,59-33.7,100-46.77,115.49"/><path class="cls-5" d="M459.82.16C434.4-.67,341-.65,255.61,67.25,182.25,125.6,143.82,236.08,136.34,262.74l126,103.44C287,353.65,391,296.78,434,213.45c50-97,31.78-188.6,26-213.37"/><path class="cls-6" d="M460.23.18c.72,3.1,1.63,7.24,2.58,12.3s1.94,11.06,2.81,17.85,1.61,14.4,2.08,22.68.41,26.78.41,26.78L465.91,110,351.29,16.06c10.09-3.3,29.16-8,29.16-8s18.13-3.65,26.35-4.81,15.81-1.9,22.65-2.37S442.35.17,447.5.11s9.39,0,12.57.14"/><circle class="cls-3" cx="358.96" cy="123.39" r="49.88"/><circle class="cls-7" cx="358.95" cy="123.28" r="38.91"/><path class="cls-4" d="M239.87,270.41c-18.27,9.2-47,24.76-77.53,61.88-20.22,24.58-23.82,53.39-30.7,70,15-9.79,39.91-21.13,60.37-45.51C222.91,319.92,234.14,290.08,239.87,270.41Z"/></g></g></svg>